Coordinates
version=1
nRows=10
nColumns=34
inDegrees=yes

Units are S.I. units (second, meters, Newtons, ...)
If the header above contains a line with 'inDegrees', this indicates whether rotational values are in degrees (yes) or radians (no).

endheader
time	pelvis_tilt	pelvis_list	pelvis_rotation	pelvis_tx	pelvis_ty	pelvis_tz	hip_flexion_r	hip_adduction_r	hip_rotation_r	knee_angle_r	ankle_angle_r	subtalar_angle_r	mtp_angle_r	hip_flexion_l	hip_adduction_l	hip_rotation_l	knee_angle_l	ankle_angle_l	subtalar_angle_l	mtp_angle_l	lumbar_extension	lumbar_bending	lumbar_rotation	arm_flex_r	arm_add_r	arm_rot_r	elbow_flex_r	pro_sup_r	arm_flex_l	arm_add_l	arm_rot_l	elbow_flex_l	pro_sup_l
      0.00000000	      1.38115451	     -2.69523656	     -1.25614166	     -0.52516702	      0.94714433	     -0.16781945	     -1.69797001	      1.95683509	     -3.64331007	      5.76934891	      0.96387928	    -10.94906617	      0.00000000	     -3.84007279	     -4.73633291	     -5.03640260	      3.15337210	     12.40952771	      0.24423011	      0.00000000	     -2.86699299	      3.46000566	     -5.55104676	      3.00668100	     -5.65518001	      9.77535388	     22.37505747	     84.30954773	     -5.87280514	     -4.47813324	      0.62185747	     27.79644099	     78.09384678
      0.01666670	     -1.06120848	     -1.20568082	     -1.59615481	     -0.52198177	      0.94179415	     -0.16734909	      0.84928924	      0.76873559	     -3.08248303	      5.35179409	      4.61519374	     -7.39298759	      0.00000000	     -0.47886174	     -2.81785573	     -5.74197220	      4.02849150	     12.59043512	      1.40284534	      0.00000000	      1.26711152	      2.15268484	     -4.94857935	      1.35613932	     -5.48974646	      8.20213072	     22.46097750	     84.18745105	     -6.11503761	     -4.61107569	     -0.33687033	     26.45699985	     78.06428684
      0.03333330	     -1.55674849	     -0.27069754	     -2.17009305	     -0.52135026	      0.94037341	     -0.16607978	      1.31836743	     -0.27898453	     -3.41276029	      4.84729703	      5.75076120	     -6.17856356	      0.00000000	     -0.03531863	     -1.84283371	     -7.12417506	      4.11662782	     11.92047723	      2.00752892	      0.00000000	      2.29737044	      1.13797709	     -4.39043891	      0.78398699	     -5.39845506	      7.81175265	     22.92091719	     84.22787465	     -6.26342114	     -5.11310008	      0.61920580	     26.10869629	     78.31918427
      0.05000000	     -0.98415133	      0.19947001	     -2.21991779	     -0.52263137	      0.94235041	     -0.16572149	      0.56031569	     -0.84343065	     -3.83359790	      4.36346101	      6.63195461	     -4.79658154	      0.00000000	     -1.04382708	     -1.20384139	     -6.83272739	      3.46695917	     11.55690830	      1.69307056	      0.00000000	      1.80496603	      0.56710030	     -3.46358729	      0.07984761	     -5.48141423	      7.56244853	     23.90200297	     84.54273804	     -5.38637193	     -6.20418146	      6.20904728	     25.24555688	     79.34673201
      0.06666670	     -0.82422108	      0.37116741	     -2.50874588	     -0.52253991	      0.94312886	     -0.16497008	      0.38903534	     -0.93986838	     -3.24741930	      4.12337333	      7.09411019	     -4.81309581	      0.00000000	     -1.51506841	     -0.96596231	     -7.06068310	      2.86924913	     11.02728194	      1.53945700	      0.00000000	      1.63306986	      0.41979442	     -3.15159405	      0.07764054	     -5.40615018	      7.61679925	     23.94278547	     84.60847117	     -5.19837094	     -6.30505953	      6.80670713	     25.06558587	     79.31466956
      0.08333330	     -0.22494082	      0.37211713	     -2.49125663	     -0.52352478	      0.94590023	     -0.16514767	     -0.26204724	     -0.91905432	     -3.01312776	      3.84288762	      6.84041338	     -4.91616656	      0.00000000	     -2.21438923	     -0.91091811	     -6.57183651	      2.76850418	     10.95732450	      1.35613079	      0.00000000	      0.75296851	      0.44650547	     -2.73492255	      0.14377383	     -5.49056579	      7.78227532	     23.99705841	     84.73132166	     -4.31766315	     -6.35256570	      8.11048848	     24.44963462	     79.16200959
      0.10000000	     -0.20146296	      0.37916593	     -2.48607162	     -0.52405030	      0.94615090	     -0.16500896	     -0.21191870	     -0.90436207	     -3.00749454	      3.81959314	      6.83976581	     -4.91370936	      0.00000000	     -2.24639157	     -0.90470091	     -6.56245758	      2.78426010	     10.95664164	      1.35980414	      0.00000000	      0.75451147	      0.44494087	     -2.73963524	      0.14247680	     -5.48951227	      7.78264644	     23.99700458	     84.73148731	     -4.30719855	     -6.35222106	      8.11235553	     24.45155437	     79.16137046
      0.11666670	     -0.11550252	      0.36345337	     -2.53497870	     -0.52373126	      0.94701089	     -0.16476545	     -0.22869890	     -0.85876348	     -2.71073404	      3.85457199	      6.66286447	     -4.77602904	      0.00000000	     -2.28201150	     -0.93089421	     -6.12601774	      2.86589173	     10.92032721	      1.50252978	      0.00000000	      0.59044442	      0.41515427	     -2.74345701	      0.27002744	     -5.40002506	      7.80484092	     24.02225460	     84.73897530	     -3.92545141	     -6.37620237	      8.15834799	     24.47966620	     79.13107383
      0.13333330	      0.68881233	      0.29956333	     -2.52562330	     -0.52405494	      0.94786779	     -0.16480231	     -1.25552200	     -0.79726867	     -2.47688968	      3.45903615	      6.13706769	     -5.24878542	      0.00000000	     -3.24929744	     -0.93793766	     -5.56090408	      2.69313485	     10.66919027	      0.88941968	      0.00000000	     -0.65725333	      0.43932553	     -2.43522371	      0.42715263	     -5.46646340	      7.86331463	     23.97219845	     84.78589101	     -2.99617716	     -6.36627004	      8.90231255	     23.62337922	     78.71652645
      0.15000000	      0.69666411	      0.30590650	     -2.54654876	     -0.52394065	      0.94884623	     -0.16480508	     -1.27473945	     -0.79881673	     -2.47688009	      3.46370004	      6.13342438	     -5.24791243	      0.00000000	     -3.22129070	     -0.94553736	     -5.55405997	      2.68542101	     10.66540976	      0.89182260	      0.00000000	     -0.65991147	      0.43530971	     -2.43673189	      0.42471991	     -5.46581595	      7.86350797	     23.97176450	     84.78599990	     -2.99348488	     -6.36733569	      8.90383404	     23.62233847	     78.71533136
